# xmcd
#
# Track frame offsets:
#	183
#	10008
#	26753
#	30778
#	39508
#	47763
#	56683
#	81670
#	96713
#	103908
#	118878
#	136770
#	159833
#	175508
#	226048
#
# Disc length: 3159 seconds
#
# Revision: 0
# Processed by: cddbd v1.5.2PL0 Copyright (c) Steve Scherf et al.
# Submitted via: EasyCDDAExtractor 2011.3.0.0
#
DISCID=b70c550f
DTITLE=Gante_LaPetiteBande_SKuijken - 09_Orfeo ed Euridice_Gluck
DYEAR=1982
DGENRE=Opera
TTITLE0=2 act_Gante_LaPetiteBande_SKuijken - Vieni a' regni del riposo
TTITLE1=2 act_Gante_LaPetiteBande_SKuijken - Ballo (andante)
TTITLE2=2 act_Gante_LaPetiteBande_SKuijken - Anime avventurose
TTITLE3=2 act_Gante_LaPetiteBande_SKuijken - Torno, o bella, al tuo consorte
TTITLE4=2 act_Gante_LaPetiteBande_SKuijken - Ballo
TTITLE5=2 act_Gante_LaPetiteBande_SKuijken - Torna, o bella, al tuo consorte
TTITLE6=3 act_Gante_LaPetiteBande_SKuijken - Vieni, segui i miei passi
TTITLE7=3 act_Gante_LaPetiteBande_SKuijken - Vieni, appaga il tuo consorte
TTITLE8=3 act_Gante_LaPetiteBande_SKuijken - Qual vita è questa mai
TTITLE9=3 act_Gante_LaPetiteBande_SKuijken - Che fiero momento
TTITLE10=3 act_Gante_LaPetiteBande_SKuijken - Ecco un nuovo tormento
TTITLE11=3 act_Gante_LaPetiteBande_SKuijken - Che farò senza Euridice
TTITLE12=3 act_Gante_LaPetiteBande_SKuijken - Ah finisca e per sempre
TTITLE13=3 act_Gante_LaPetiteBande_SKuijken - Ballo (maestoso, grazioso, alleg
TTITLE13=ro, andante, allegro)
TTITLE14=3 act_Gante_LaPetiteBande_SKuijken - Trionfi Amore!
EXTD=
EXTT0=
EXTT1=
EXTT2=
EXTT3=
EXTT4=
EXTT5=
EXTT6=
EXTT7=
EXTT8=
EXTT9=
EXTT10=
EXTT11=
EXTT12=
EXTT13=
EXTT14=
PLAYORDER=
